# xmcd CD database file
#
# Track frame offsets:
#	187
#	20702
#	29510
#	41862
#	53715
#	63082
#	77187
#	129125
#	142150
#	164507
#	194170
#	221770
#	236682
#
# Disc length: 3215 seconds
#
# Revision: 0
# Processed by: cddbd v1.5.1PL0 Copyright (c) Steve Scherf et al.
# Submitted via: CDex 1.51
#
DISCID=c50c8d0d
DTITLE=Sadao Watanabe - VAMOS JUNTOS
DYEAR=1986
DGENRE=Jazz
TTITLE0=Escravo Da Alegria
TTITLE1=O Velho E A Flor
TTITLE2=Mais Um Adeus
TTITLE3=Que Maravilha
TTITLE4=A Tonga Da Mironga Do Kabulete
TTITLE5=Saudade Da Bahia
TTITLE6=(Pout Pourripara Vinicius)
TTITLE7=Pur Que Sera
TTITLE8=Aquarela
TTITLE9=Manha De Carnaval
TTITLE10=Samba De Orfeu
TTITLE11=Samba Da Volta
TTITLE12=Final (Samba Pra Vinicius)
EXTD=YEAR: 1986
EXTT0=
EXTT1=
EXTT2=
EXTT3=
EXTT4=
EXTT5=
EXTT6=
EXTT7=
EXTT8=
EXTT9=
EXTT10=
EXTT11=
EXTT12=
PLAYORDER=
